<svg xmlns="http://www.w3.org/2000/svg" width="1200" height="630" viewBox="0 0 1200 630">
  <defs>
    <linearGradient id="bg" x1="0%" y1="0%" x2="100%" y2="100%">
      <stop offset="0%" style="stop-color:#0f2d1a"/>
      <stop offset="100%" style="stop-color:#1a5a3d"/>
    </linearGradient>
    <pattern id="dots" x="0" y="0" width="60" height="60" patternUnits="userSpaceOnUse">
      <circle cx="2" cy="2" r="1" fill="rgba(255,255,255,0.05)"/>
    </pattern>
  </defs>
  <rect width="1200" height="630" fill="url(#bg)"/>
  <rect width="1200" height="630" fill="url(#dots)"/>
  <g transform="translate(540,200) scale(2.8)">
    <path d="M3 12l2-2m0 0l7-7 7 7M5 10v10a1 1 0 001 1h3m10-11l2 2m-2-2v10a1 1 0 01-1 1h-3m-6 0a1 1 0 001-1v-4a1 1 0 011-1h2a1 1 0 011 1v4a1 1 0 001 1m-6 0h6" fill="none" stroke="white" stroke-width="2.5" stroke-linejoin="round"/>
  </g>
  <text x="600" y="420" text-anchor="middle" fill="white" font-family="system-ui, -apple-system, sans-serif" font-size="32" font-weight="600" letter-spacing="0.5">Real Estate</text>
  <text x="600" y="458" text-anchor="middle" fill="rgba(255,255,255,0.5)" font-family="system-ui, -apple-system, sans-serif" font-size="16" letter-spacing="1">MEASURELY</text>
  <title>Real Estate Blog Articles - Measurely</title>
  <desc>Featured illustration for Real Estate category blog posts on Measurely</desc>
</svg>
